<svg width="100%" viewBox="0 0 680 680" role="img" xmlns="http://www.w3.org/2000/svg" style=""><defs><mask id="imagine-text-gaps-nroqvb" maskUnits="userSpaceOnUse"><rect x="0" y="0" width="680" height="680" fill="white"/><rect x="232.12838745117188" y="483.88653564453125" width="216.072998046875" height="34.141845703125" fill="black" rx="2"/><rect x="240.77532958984375" y="531.3404541015625" width="198.44937133789062" height="19.67375946044922" fill="black" rx="2"/><rect x="268.8402099609375" y="557.1489868164062" width="141.71676635742188" height="17.26239013671875" fill="black" rx="2"/><rect x="253.69863891601562" y="90.3546142578125" width="172.6027374267578" height="16.056737899780273" fill="black" rx="2"/></mask></defs>
<title>Logo Chatbot Médical Darija - Bleu nude</title>
<desc>Logo du chatbot médical multilingue en palette bleu clair nude</desc>

<!-- Fond doux ivoire/nude -->
<circle cx="340" cy="340" r="320" fill="#eef4f9"/>

<!-- Anneau extérieur double -->
<circle cx="340" cy="340" r="304" fill="none" stroke="#b8d4e8" stroke-width="2.5"/>
<circle cx="340" cy="340" r="294" fill="none" stroke="#d6e8f4" stroke-width="1"/>

<!-- Cercle intérieur décoratif -->
<circle cx="340" cy="340" r="230" fill="#f7fbfe" stroke="#d0e6f3" stroke-width="1.5"/>

<!-- Points cardinaux sur l'anneau -->
<circle cx="340" cy="36" r="5" fill="#4a7fa5"/>
<circle cx="340" cy="644" r="5" fill="#4a7fa5"/>
<circle cx="36" cy="340" r="5" fill="#4a7fa5"/>
<circle cx="644" cy="340" r="5" fill="#4a7fa5"/>
<circle cx="133" cy="133" r="3.5" fill="#8ab4cc"/>
<circle cx="547" cy="133" r="3.5" fill="#8ab4cc"/>
<circle cx="133" cy="547" r="3.5" fill="#8ab4cc"/>
<circle cx="547" cy="547" r="3.5" fill="#8ab4cc"/>

<!-- Lignes décoratives subtiles -->
<line x1="340" y1="110" x2="340" y2="174" stroke="#c8dff0" stroke-width="1" opacity="0.6"/>
<line x1="340" y1="506" x2="340" y2="570" stroke="#c8dff0" stroke-width="1" opacity="0.6" mask="url(#imagine-text-gaps-nroqvb)"/>
<line x1="110" y1="340" x2="174" y2="340" stroke="#c8dff0" stroke-width="1" opacity="0.6"/>
<line x1="506" y1="340" x2="570" y2="340" stroke="#c8dff0" stroke-width="1" opacity="0.6"/>

<!-- Croix médicale en fond (décorative, très douce) -->
<rect x="316" y="195" width="48" height="14" rx="7" fill="#b8d4e8" opacity="0.35"/>
<rect x="323" y="185" width="14" height="34" rx="7" fill="#b8d4e8" opacity="0.35"/>

<!-- === BULLE PRINCIPALE === -->
<rect x="178" y="178" width="310" height="195" rx="26" fill="#4a7fa5"/>
<rect x="190" y="185" width="280" height="50" rx="18" fill="#6a9fc0" opacity="0.3"/>
<polygon points="238,373 205,426 295,373" fill="#4a7fa5"/>

<!-- Lignes de texte simulées -->
<rect x="200" y="205" width="105" height="9" rx="4.5" fill="#eef4f9" opacity="0.9"/>
<rect x="200" y="221" width="80" height="9" rx="4.5" fill="#eef4f9" opacity="0.65"/>
<line x1="200" y1="244" x2="465" y2="244" stroke="#eef4f9" stroke-width="0.8" opacity="0.3"/>

<!-- Icône croix médicale dans bulle -->
<rect x="352" y="257" width="62" height="16" rx="8" fill="#eef4f9" opacity="0.9"/>
<rect x="360" y="246" width="16" height="38" rx="8" fill="#eef4f9" opacity="0.9"/>

<!-- Lignes médicament simulées -->
<rect x="200" y="262" width="130" height="9" rx="4.5" fill="#eef4f9" opacity="0.9"/>
<rect x="200" y="278" width="100" height="9" rx="4.5" fill="#eef4f9" opacity="0.65"/>
<rect x="200" y="294" width="115" height="9" rx="4.5" fill="#eef4f9" opacity="0.5"/>

<!-- Ligne alerte (orange nude douce) -->
<rect x="200" y="320" width="8" height="28" rx="4" fill="#f0a070" opacity="0.8"/>
<rect x="216" y="322" width="95" height="8" rx="4" fill="#eef4f9" opacity="0.7"/>
<rect x="216" y="336" width="75" height="8" rx="4" fill="#eef4f9" opacity="0.5"/>

<!-- === PETITE BULLE UTILISATEUR (droite) === -->
<rect x="385" y="390" width="155" height="68" rx="16" fill="#c8dff0"/>
<polygon points="540,400 572,392 540,418" fill="#c8dff0"/>
<rect x="400" y="406" width="88" height="8" rx="4" fill="#4a7fa5" opacity="0.6"/>
<rect x="400" y="420" width="65" height="8" rx="4" fill="#4a7fa5" opacity="0.45"/>
<rect x="400" y="434" width="75" height="8" rx="4" fill="#4a7fa5" opacity="0.35"/>

<!-- === MICRO / ONDE SONORE === -->
<circle cx="175" cy="420" r="24" fill="#deeef8"/>
<rect x="168" y="407" width="14" height="20" rx="7" fill="#4a7fa5"/>
<path d="M160 422 Q160 435 175 435 Q190 435 190 422" fill="none" stroke="#4a7fa5" stroke-width="2" stroke-linecap="round"/>
<line x1="175" y1="435" x2="175" y2="444" stroke="#4a7fa5" stroke-width="2" stroke-linecap="round"/>

<!-- === TEXTE PRINCIPAL === -->
<text x="340" y="510" font-family="serif" font-size="27" font-weight="700" fill="#2c4a6e" text-anchor="middle">طبيب الذكاء الاصطناعي</text>
<text x="340" y="546" font-family="sans-serif" font-size="14" font-weight="500" fill="#4a7fa5" text-anchor="middle">DARIJA MEDICAL AI</text>
<text x="340" y="570" font-family="sans-serif" font-size="12" fill="#8ab4cc" text-anchor="middle">عربية · دارجة · français</text>

<!-- Badge UM5 -->
<rect x="263" y="86" width="154" height="24" rx="12" fill="#deeef8"/>
<text x="340" y="102" font-family="sans-serif" font-size="10.5" font-weight="500" fill="#4a7fa5" text-anchor="middle">UNIVERSITÉ UM5 · RABAT</text>
</svg>
